<?xml version="1.0" encoding="UTF-8" standalone="no"?>
<!DOCTYPE svg PUBLIC "-//W3C//DTD SVG 1.1//EN" "http://www.w3.org/Graphics/SVG/1.1/DTD/svg11.dtd">
<svg xmlns="http://www.w3.org/2000/svg" version="1.1" viewBox="0.00 0.00 471.00 404.00">
<g stroke-width="2.00" fill="none" stroke-linecap="butt">
<path stroke="#0457b8" vector-effect="non-scaling-stroke" d="
  M 211.83 95.25
  Q 204.44 119.33 196.87 144.14
  Q 196.57 145.13 195.92 145.24"
/>
<path stroke="#4d81c3" vector-effect="non-scaling-stroke" d="
  M 195.92 145.24
  L 184.49 133.74
  A 1.33 1.32 -44.2 0 0 182.64 133.72
  L 179.72 136.50
  Q 178.38 137.78 179.72 139.07
  L 194.05 152.80"
/>
<path stroke="#0457b8" vector-effect="non-scaling-stroke" d="
  M 194.05 152.80
  L 183.86 186.46"
/>
<path stroke="#617ea7" vector-effect="non-scaling-stroke" d="
  M 166.87 169.19
  L 166.87 158.64"
/>
<path stroke="#4d81c3" vector-effect="non-scaling-stroke" d="
  M 166.87 158.64
  Q 168.19 159.79 169.05 159.07
  Q 171.08 157.36 172.52 155.50
  A 1.09 1.09 0.0 0 0 172.43 154.07
  L 152.85 134.18
  Q 151.56 132.87 150.24 134.16
  L 147.70 136.67
  Q 146.45 137.89 147.66 139.16
  Q 156.19 148.11 165.16 156.84
  Q 165.82 157.47 166.05 158.26"
/>
<path stroke="#617ea7" vector-effect="non-scaling-stroke" d="
  M 166.05 158.26
  Q 166.22 162.76 166.30 167.20
  C 166.31 167.65 166.13 167.96 165.91 168.34"
/>
<path stroke="#72a3e3" vector-effect="non-scaling-stroke" d="
  M 167.28 195.52
  Q 167.19 196.18 166.73 196.74"
/>
<path stroke="#a7c0e3" vector-effect="non-scaling-stroke" d="
  M 166.87 158.64
  L 166.05 158.26"
/>
<path stroke="#6aa1e2" vector-effect="non-scaling-stroke" d="
  M 315.62 171.14
  L 314.94 173.04"
/>
<path stroke="#5e96d9" vector-effect="non-scaling-stroke" d="
  M 314.94 173.04
  L 313.50 177.96"
/>
<path stroke="#6aa1e2" vector-effect="non-scaling-stroke" d="
  M 313.50 177.96
  L 310.94 186.29"
/>
<path stroke="#5e96d9" vector-effect="non-scaling-stroke" d="
  M 310.94 186.29
  L 292.33 247.34"
/>
<path stroke="#4a99f5" vector-effect="non-scaling-stroke" d="
  M 291.79 250.12
  Q 290.40 252.37 290.00 255.15
  Q 289.93 255.67 290.42 255.47
  L 298.68 251.95"
/>
<path stroke="#5e96d9" vector-effect="non-scaling-stroke" d="
  M 298.68 251.95
  Q 299.59 252.09 300.26 252.66"
/>
<path stroke="#0457b8" vector-effect="non-scaling-stroke" d="
  M 300.26 252.66
  L 290.10 257.16
  Q 289.21 257.56 288.92 258.49
  L 286.69 265.76
  Q 286.28 267.08 287.53 266.49
  Q 294.45 263.22 307.71 257.70
  Q 308.36 257.43 308.02 256.80"
/>
<path stroke="#5e96d9" vector-effect="non-scaling-stroke" d="
  M 308.02 256.80
  Q 309.11 257.23 309.98 257.96"
/>
<path stroke="#4a99f5" vector-effect="non-scaling-stroke" d="
  M 309.98 257.96
  L 297.34 263.47
  Q 297.20 263.53 297.20 263.67
  Q 297.18 263.84 297.05 263.85
  Q 297.00 263.85 296.95 263.87
  Q 291.93 265.81 286.94 268.09"
/>
<path stroke="#60a5f5" vector-effect="non-scaling-stroke" d="
  M 286.94 268.09
  Q 285.58 268.45 284.71 271.92"
/>
<path stroke="#358df5" vector-effect="non-scaling-stroke" d="
  M 284.71 271.92
  L 280.05 288.08"
/>
<path stroke="#6aa1e2" vector-effect="non-scaling-stroke" d="
  M 167.05 240.23
  Q 167.30 239.21 167.61 239.49"
/>
<path stroke="#6aa1e2" vector-effect="non-scaling-stroke" d="
  M 168.97 232.56
  Q 169.13 232.52 169.23 232.46
  Q 169.39 232.37 169.24 232.27
  L 168.95 232.08"
/>
<path stroke="#6aa1e2" vector-effect="non-scaling-stroke" d="
  M 178.28 203.66
  Q 178.42 203.74 178.46 203.06"
/>
<path stroke="#157bf5" vector-effect="non-scaling-stroke" d="
  M 178.90 202.77
  L 179.93 198.97"
/>
<path stroke="#4a99f5" vector-effect="non-scaling-stroke" d="
  M 194.05 152.80
  Q 196.27 147.28 195.92 145.24"
/>
<path stroke="#7daeed" vector-effect="non-scaling-stroke" d="
  M 167.99 203.49
  Q 168.06 203.77 168.04 204.00"
/>
<path stroke="#7daeed" vector-effect="non-scaling-stroke" d="
  M 138.47 219.62
  Q 138.28 219.59 138.05 219.71"
/>
<path stroke="#7daeed" vector-effect="non-scaling-stroke" d="
  M 109.77 221.13
  Q 109.65 221.51 109.22 221.32"
/>
<path stroke="#72a3e3" vector-effect="non-scaling-stroke" d="
  M 81.03 237.75
  Q 80.44 236.79 80.26 237.20"
/>
<path stroke="#7daeed" vector-effect="non-scaling-stroke" d="
  M 80.23 232.96
  Q 80.35 232.70 80.71 232.46"
/>
<path stroke="#72a3e3" vector-effect="non-scaling-stroke" d="
  M 109.04 217.56
  Q 109.12 217.68 109.53 217.53"
/>
<path stroke="#a9cfff" vector-effect="non-scaling-stroke" d="
  M 348.18 253.45
  Q 348.85 254.29 349.76 254.15
  Q 350.60 254.02 351.13 254.38
  Q 351.71 254.76 352.40 254.71
  Q 360.09 254.15 367.76 255.58
  Q 370.04 256.01 372.22 255.87
  Q 375.44 255.67 372.59 257.19
  Q 357.59 265.17 342.98 273.20
  Q 340.89 274.34 338.39 274.47
  Q 329.14 274.92 324.01 274.25
  Q 317.37 273.37 313.22 273.84"
/>
<path stroke="#93c3ff" vector-effect="non-scaling-stroke" d="
  M 313.22 273.84
  Q 308.86 273.62 304.35 273.60
  C 303.52 273.59 302.76 273.18 301.99 273.53
  Q 301.51 273.74 301.05 273.51
  C 300.34 273.15 299.77 272.86 298.94 272.88
  Q 291.65 273.10 284.71 271.92"
/>
<path stroke="#a9cfff" vector-effect="non-scaling-stroke" d="
  M 286.94 268.09
  Q 288.73 268.74 290.07 268.09
  Q 290.51 267.88 290.99 267.95
  Q 291.93 268.08 293.23 267.90
  Q 305.66 266.20 316.40 260.56"
/>
<path stroke="#a9cfff" vector-effect="non-scaling-stroke" d="
  M 318.71 261.07
  Q 318.70 261.21 318.67 261.34
  Q 318.64 261.53 318.46 261.61
  Q 304.19 267.77 288.59 269.72
  A 0.64 0.64 0.0 0 0 288.05 270.21
  L 287.98 270.50
  A 0.24 0.24 0.0 0 0 288.21 270.79
  Q 308.52 271.43 329.91 272.88
  Q 332.61 273.07 334.81 272.45
  C 338.04 271.55 341.09 272.32 344.14 270.64
  Q 355.32 264.48 365.73 259.01
  Q 367.77 257.95 365.48 257.76
  Q 365.17 257.74 364.86 257.66
  Q 364.29 257.52 364.02 257.00
  Q 363.61 256.20 362.75 256.17
  Q 350.01 255.67 337.31 254.92"
/>
<path stroke="#c7c8d1" vector-effect="non-scaling-stroke" d="
  M 347.94 239.16
  Q 345.74 237.37 342.70 238.96
  Q 340.30 240.22 339.09 240.36
  C 332.10 241.17 323.13 237.16 316.50 233.66
  Q 307.34 228.83 301.78 224.22
  Q 301.53 224.01 301.32 224.26
  L 301.16 224.47
  Q 301.12 224.52 301.17 224.56
  C 311.22 233.06 323.86 240.66 336.88 243.36
  Q 342.07 244.43 346.56 242.31"
/>
<path stroke="#bdcce3" vector-effect="non-scaling-stroke" d="
  M 338.97 252.91
  Q 337.56 253.65 337.31 254.92"
/>
<path stroke="#a7c0e3" vector-effect="non-scaling-stroke" d="
  M 337.31 254.92
  L 335.97 256.25"
/>
<path stroke="#c7c8d1" vector-effect="non-scaling-stroke" d="
  M 335.97 256.25
  Q 335.05 256.16 334.11 256.93
  A 1.47 1.46 -66.6 0 1 333.26 257.27
  Q 331.11 257.43 328.92 257.49
  Q 326.81 257.54 324.60 256.89
  Q 308.87 252.26 295.91 242.28
  Q 295.62 242.06 295.34 242.25
  A 0.33 0.33 0.0 0 0 295.33 242.79
  Q 302.87 248.32 311.20 252.55
  Q 314.84 254.39 318.79 255.78
  Q 323.95 257.60 326.75 258.00
  Q 328.40 258.24 334.28 258.13"
/>
<path stroke="#a7c0e3" vector-effect="non-scaling-stroke" d="
  M 334.28 258.13
  Q 332.60 262.44 327.50 262.47
  Q 322.99 262.50 318.71 261.07"
/>
<path stroke="#bdcce3" vector-effect="non-scaling-stroke" d="
  M 318.71 261.07
  Q 317.31 260.52 316.40 260.56"
/>
<path stroke="#a7c0e3" vector-effect="non-scaling-stroke" d="
  M 316.40 260.56
  L 309.98 257.96"
/>
<path stroke="#617ea7" vector-effect="non-scaling-stroke" d="
  M 308.02 256.80
  L 300.26 252.66"
/>
<path stroke="#a7c0e3" vector-effect="non-scaling-stroke" d="
  M 298.68 251.95
  Q 297.85 250.95 296.64 250.31"
/>
<path stroke="#c7c8d1" vector-effect="non-scaling-stroke" d="
  M 367.79 221.26
  C 361.11 223.42 354.53 221.70 348.31 218.99
  Q 326.41 209.46 310.25 191.44
  A 1.68 1.67 41.6 0 1 310.12 189.37
  Q 311.06 188.02 310.94 186.29"
/>
<path stroke="#c7c8d1" vector-effect="non-scaling-stroke" d="
  M 313.50 177.96
  L 314.88 175.63
  Q 315.37 174.82 316.28 175.06
  Q 322.85 176.82 327.92 179.40
  Q 343.68 187.39 355.39 199.42
  Q 360.12 204.28 363.13 210.06
  C 363.85 211.43 364.00 212.91 364.51 214.37
  Q 364.79 215.16 364.86 214.33
  C 365.23 210.21 360.72 203.48 358.01 200.46
  Q 344.56 185.46 325.89 177.14
  Q 320.92 174.93 315.52 174.07
  A 0.75 0.74 -4.4 0 1 314.92 173.56
  Q 314.84 173.31 314.94 173.04"
/>
<path stroke="#c7c8d1" vector-effect="non-scaling-stroke" d="
  M 138.16 233.14
  Q 138.60 232.34 138.23 232.60"
/>
<path stroke="#c7c8d1" vector-effect="non-scaling-stroke" d="
  M 81.22 262.09
  L 80.73 262.12"
/>
<path stroke="#7daeed" vector-effect="non-scaling-stroke" d="
  M 164.86 203.41
  L 164.27 203.93"
/>
<path stroke="#7daeed" vector-effect="non-scaling-stroke" d="
  M 138.44 212.45
  L 137.86 212.79"
/>
<path stroke="#c7c8d1" vector-effect="non-scaling-stroke" d="
  M 109.46 204.72
  Q 109.30 204.45 108.93 204.45"
/>
<path stroke="#7eb7ff" vector-effect="non-scaling-stroke" d="
  M 342.84 291.57
  Q 343.35 284.41 343.69 277.59
  Q 343.70 277.51 343.64 277.47
  Q 343.55 277.41 343.51 277.50
  Q 343.37 277.78 343.37 277.47
  Q 343.36 276.19 342.05 276.05
  Q 337.70 275.60 332.26 275.23
  Q 326.00 274.80 318.95 274.69
  Q 317.76 274.67 316.09 274.30
  Q 314.76 274.00 313.22 273.84"
/>
<path stroke="#b3cbed" vector-effect="non-scaling-stroke" d="
  M 335.97 256.25
  Q 334.98 257.77 334.28 258.13"
/>
<path stroke="#c7c8d1" vector-effect="non-scaling-stroke" d="
  M 81.26 262.63
  Q 81.14 262.71 80.64 262.71"
/>
<path stroke="#617ea7" vector-effect="non-scaling-stroke" d="
  M 156.22 90.48
  Q 153.78 92.13 152.50 94.40
  A 1.40 1.39 37.3 0 0 152.73 96.07
  L 163.40 106.81
  A 0.90 0.87 62.0 0 0 164.18 107.06
  Q 165.67 106.81 166.66 105.30"
/>
<path stroke="#6c89b0" vector-effect="non-scaling-stroke" d="
  M 166.66 105.30
  L 171.08 101.01"
/>
<path stroke="#617ea7" vector-effect="non-scaling-stroke" d="
  M 171.08 101.01
  L 172.79 99.22
  A 1.44 1.44 0.0 0 0 172.78 97.22
  L 162.20 86.53
  A 1.29 1.29 0.0 0 0 160.62 86.33
  Q 158.09 87.86 156.22 90.48"
/>
<path stroke="#c7c8d1" vector-effect="non-scaling-stroke" d="
  M 171.08 101.01
  Q 167.65 98.54 167.97 95.96
  Q 168.05 95.29 167.57 94.81
  Q 166.11 93.38 164.52 91.73
  Q 163.51 90.68 162.50 91.69
  A 0.64 0.63 -36.7 0 1 161.49 91.55
  Q 160.43 89.58 158.77 89.08
  A 1.13 1.12 -61.2 0 0 157.59 89.43
  Q 156.96 90.16 156.22 90.48"
/>
<path stroke="#c7c8d1" vector-effect="non-scaling-stroke" d="
  M 166.66 105.30
  Q 165.64 103.21 163.82 101.82
  Q 163.40 101.50 162.91 101.71
  L 162.33 101.97
  Q 161.64 102.28 161.12 101.74
  L 157.54 98.11
  Q 157.08 97.64 157.38 97.06
  Q 157.60 96.65 157.61 96.20
  Q 157.63 95.79 157.37 95.48
  L 155.34 93.05
  Q 154.95 92.58 155.26 92.06
  L 156.22 90.48"
/>
<path stroke="#4d81c3" vector-effect="non-scaling-stroke" d="
  M 149.8860 98.7121
  A 1.43 1.43 0.0 0 0 147.8638 98.7015
  L 144.7931 101.7402
  A 1.43 1.43 0.0 0 0 144.7825 103.7625
  L 157.5140 116.6279
  A 1.43 1.43 0.0 0 0 159.5362 116.6385
  L 162.6069 113.5998
  A 1.43 1.43 0.0 0 0 162.6175 111.5775
  L 149.8860 98.7121"
/>
<path stroke="#4d81c3" vector-effect="non-scaling-stroke" d="
  M 133.6840 114.8084
  A 1.51 1.51 0.0 0 0 131.5486 114.7897
  L 128.6243 117.6635
  A 1.51 1.51 0.0 0 0 128.6056 119.7989
  L 141.2360 132.6516
  A 1.51 1.51 0.0 0 0 143.3714 132.6703
  L 146.2957 129.7965
  A 1.51 1.51 0.0 0 0 146.3144 127.6611
  L 133.6840 114.8084"
/>
<path stroke="#4d81c3" vector-effect="non-scaling-stroke" d="
  M 167.1424 116.2747
  A 1.40 1.40 0.0 0 0 165.1626 116.2643
  L 162.1061 119.2889
  A 1.40 1.40 0.0 0 0 162.0958 121.2688
  L 174.8976 134.2053
  A 1.40 1.40 0.0 0 0 176.8774 134.2157
  L 179.9339 131.1911
  A 1.40 1.40 0.0 0 0 179.9442 129.2112
  L 167.1424 116.2747"
/>
<path stroke="#60a5f5" vector-effect="non-scaling-stroke" d="
  M 216.96 97.13
  C 198.29 158.41 179.49 219.68 160.75 281.05
  Q 159.40 285.48 159.77 287.58
  Q 160.47 291.48 164.71 292.78
  Q 210.48 306.79 256.34 320.79
  Q 261.13 322.25 263.75 319.23
  Q 265.03 317.76 266.40 313.28
  Q 294.75 220.60 323.07 127.92
  C 324.58 122.99 324.02 118.79 318.44 117.09
  Q 300.56 111.66 285.23 107.11
  C 282.36 106.25 279.39 106.67 276.62 107.63
  C 269.57 110.07 268.52 105.35 264.48 101.82
  Q 262.53 100.12 259.40 99.15
  Q 245.65 94.92 231.21 90.42
  C 227.48 89.26 223.46 87.49 220.09 90.55
  Q 218.53 91.95 216.96 97.13"
/>
<path stroke="#a9cfff" vector-effect="non-scaling-stroke" d="
  M 286.1043 154.8889
  A 0.61 0.61 0.0 0 0 285.6993 154.1272
  L 278.6035 151.9578
  A 0.61 0.61 0.0 0 0 277.8418 152.3628
  L 266.6557 188.9511
  A 0.61 0.61 0.0 0 0 267.0607 189.7128
  L 274.1565 191.8822
  A 0.61 0.61 0.0 0 0 274.9182 191.4772
  L 286.1043 154.8889"
/>
<path stroke="#73b2ff" vector-effect="non-scaling-stroke" d="
  M 272.2491 158.8778
  A 0.45 0.45 0.0 0 0 271.9503 158.3159
  L 264.5677 156.0588
  A 0.45 0.45 0.0 0 0 264.0058 156.3575
  L 255.0709 185.5822
  A 0.45 0.45 0.0 0 0 255.3697 186.1441
  L 262.7523 188.4012
  A 0.45 0.45 0.0 0 0 263.3142 188.1025
  L 272.2491 158.8778"
/>
<path stroke="#628dc3" vector-effect="non-scaling-stroke" d="
  M 233.9027 160.1548
  A 0.39 0.39 0.0 0 0 233.6438 159.6678
  L 226.1655 157.3815
  A 0.39 0.39 0.0 0 0 225.6785 157.6404
  L 220.3573 175.0452
  A 0.39 0.39 0.0 0 0 220.6162 175.5322
  L 228.0945 177.8185
  A 0.39 0.39 0.0 0 0 228.5815 177.5596
  L 233.9027 160.1548"
/>
<path stroke="#628dc3" vector-effect="non-scaling-stroke" d="
  M 245.4569 163.7153
  A 0.41 0.41 0.0 0 0 245.1855 163.2029
  L 237.7495 160.9153
  A 0.41 0.41 0.0 0 0 237.2370 161.1866
  L 231.9031 178.5247
  A 0.41 0.41 0.0 0 0 232.1745 179.0371
  L 239.6105 181.3247
  A 0.41 0.41 0.0 0 0 240.1230 181.0534
  L 245.4569 163.7153"
/>
<path stroke="#73b2ff" vector-effect="non-scaling-stroke" d="
  M 257.9133 164.3207
  A 0.55 0.55 0.0 0 0 257.5481 163.6339
  L 250.3567 161.4353
  A 0.55 0.55 0.0 0 0 249.6699 161.8004
  L 243.5067 181.9593
  A 0.55 0.55 0.0 0 0 243.8719 182.6461
  L 251.0633 184.8447
  A 0.55 0.55 0.0 0 0 251.7501 184.4796
  L 257.9133 164.3207"
/>
<path stroke="#93c3ff" vector-effect="non-scaling-stroke" d="
  M 235.51 211.97
  Q 227.03 210.04 219.03 213.90
  Q 218.64 214.09 218.84 214.47
  L 229.23 234.27
  Q 229.72 235.21 230.03 234.20
  L 236.55 212.83
  A 0.59 0.59 0.0 0 0 236.07 212.07
  Q 235.79 212.03 235.51 211.97"
/>
<path stroke="#73b2ff" vector-effect="non-scaling-stroke" d="
  M 254.06 244.41
  C 257.08 231.91 251.05 219.74 238.82 215.35
  Q 238.19 215.12 238.00 215.76
  L 231.31 237.69
  Q 231.14 238.23 231.68 238.40
  L 253.08 244.96
  Q 253.87 245.20 254.06 244.41"
/>
<path stroke="#c8d7ed" vector-effect="non-scaling-stroke" d="
  M 227.88 237.47
  L 217.32 217.45
  A 0.70 0.69 60.2 0 0 216.34 217.18
  C 205.26 224.02 201.26 237.20 206.83 248.81
  A 0.53 0.53 0.0 0 0 207.55 249.04
  L 227.62 238.29
  A 0.61 0.61 0.0 0 0 227.88 237.47"
/>
<path stroke="#93c3ff" vector-effect="non-scaling-stroke" d="
  M 229.03 240.69
  L 209.41 251.24
  A 0.73 0.72 59.4 0 0 209.15 252.28
  Q 217.25 264.53 231.09 263.88
  C 240.65 263.42 248.78 256.84 252.19 247.87
  Q 252.45 247.18 251.74 246.96
  L 230.77 240.52
  A 2.27 2.24 39.1 0 0 229.03 240.69"
/>
<path stroke="#c7c8d1" vector-effect="non-scaling-stroke" d="
  M 307.63 197.91
  A 0.36 0.35 -49.8 0 0 307.66 198.37
  Q 314.85 205.46 323.08 211.07
  Q 323.27 211.20 323.41 211.02
  L 323.56 210.81
  Q 323.61 210.75 323.54 210.70
  Q 315.49 204.85 308.49 197.45
  Q 308.20 197.14 307.94 197.48
  L 307.63 197.91"
/>
<path stroke="#c7c8d1" vector-effect="non-scaling-stroke" d="
  M 307.84 206.59
  Q 321.17 219.03 338.02 226.23
  C 341.92 227.90 345.87 228.83 350.04 229.22
  Q 352.54 229.46 354.99 228.83
  Q 355.25 228.76 355.18 228.50
  L 355.18 228.49
  Q 355.12 228.26 354.89 228.32
  Q 351.66 229.11 348.72 228.44
  C 346.58 227.95 344.32 227.67 342.28 226.91
  Q 322.68 219.62 306.82 204.89
  Q 306.72 204.80 306.71 204.66
  Q 306.70 204.45 306.50 204.36
  Q 306.28 204.27 306.14 204.42
  Q 306.07 204.51 306.05 204.62
  Q 305.85 205.81 307.00 206.12
  Q 307.48 206.25 307.84 206.59"
/>
<path stroke="#a9cfff" vector-effect="non-scaling-stroke" d="
  M 345.7933 263.3024
  A 6.54 1.56 -4.1 0 0 339.1585 262.2140
  A 6.54 1.56 -4.1 0 0 332.7467 264.2376
  A 6.54 1.56 -4.1 0 0 339.3815 265.3260
  A 6.54 1.56 -4.1 0 0 345.7933 263.3024"
/>
</g>
<path fill="#063f86" d="
  M 211.83 95.25
  Q 204.44 119.33 196.87 144.14
  Q 196.57 145.13 195.92 145.24
  L 184.49 133.74
  A 1.33 1.32 -44.2 0 0 182.64 133.72
  L 179.72 136.50
  Q 178.38 137.78 179.72 139.07
  L 194.05 152.80
  L 183.86 186.46
  L 166.87 169.19
  L 166.87 158.64
  Q 168.19 159.79 169.05 159.07
  Q 171.08 157.36 172.52 155.50
  A 1.09 1.09 0.0 0 0 172.43 154.07
  L 152.85 134.18
  Q 151.56 132.87 150.24 134.16
  L 147.70 136.67
  Q 146.45 137.89 147.66 139.16
  Q 156.19 148.11 165.16 156.84
  Q 165.82 157.47 166.05 158.26
  Q 166.22 162.76 166.30 167.20
  C 166.31 167.65 166.13 167.96 165.91 168.34
  Q 140.65 142.74 115.37 117.16
  Q 112.91 114.67 112.54 112.83
  Q 111.95 109.90 114.19 107.69
  Q 139.49 82.74 165.71 56.80
  C 168.00 54.54 171.72 54.68 174.00 57.00
  Q 192.80 76.11 211.83 95.25
  Z
  M 156.22 90.48
  Q 153.78 92.13 152.50 94.40
  A 1.40 1.39 37.3 0 0 152.73 96.07
  L 163.40 106.81
  A 0.90 0.87 62.0 0 0 164.18 107.06
  Q 165.67 106.81 166.66 105.30
  L 171.08 101.01
  L 172.79 99.22
  A 1.44 1.44 0.0 0 0 172.78 97.22
  L 162.20 86.53
  A 1.29 1.29 0.0 0 0 160.62 86.33
  Q 158.09 87.86 156.22 90.48
  Z
  M 149.8860 98.7121
  A 1.43 1.43 0.0 0 0 147.8638 98.7015
  L 144.7931 101.7402
  A 1.43 1.43 0.0 0 0 144.7825 103.7625
  L 157.5140 116.6279
  A 1.43 1.43 0.0 0 0 159.5362 116.6385
  L 162.6069 113.5998
  A 1.43 1.43 0.0 0 0 162.6175 111.5775
  L 149.8860 98.7121
  Z
  M 133.6840 114.8084
  A 1.51 1.51 0.0 0 0 131.5486 114.7897
  L 128.6243 117.6635
  A 1.51 1.51 0.0 0 0 128.6056 119.7989
  L 141.2360 132.6516
  A 1.51 1.51 0.0 0 0 143.3714 132.6703
  L 146.2957 129.7965
  A 1.51 1.51 0.0 0 0 146.3144 127.6611
  L 133.6840 114.8084
  Z
  M 167.1424 116.2747
  A 1.40 1.40 0.0 0 0 165.1626 116.2643
  L 162.1061 119.2889
  A 1.40 1.40 0.0 0 0 162.0958 121.2688
  L 174.8976 134.2053
  A 1.40 1.40 0.0 0 0 176.8774 134.2157
  L 179.9339 131.1911
  A 1.40 1.40 0.0 0 0 179.9442 129.2112
  L 167.1424 116.2747
  Z"
/>
<path fill="#016eea" d="
  M 315.62 171.14
  L 314.94 173.04
  L 313.50 177.96
  L 310.94 186.29
  L 292.33 247.34
  Q 291.19 249.90 291.79 250.12
  Q 290.40 252.37 290.00 255.15
  Q 289.93 255.67 290.42 255.47
  L 298.68 251.95
  Q 299.59 252.09 300.26 252.66
  L 290.10 257.16
  Q 289.21 257.56 288.92 258.49
  L 286.69 265.76
  Q 286.28 267.08 287.53 266.49
  Q 294.45 263.22 307.71 257.70
  Q 308.36 257.43 308.02 256.80
  Q 309.11 257.23 309.98 257.96
  L 297.34 263.47
  Q 297.20 263.53 297.20 263.67
  Q 297.18 263.84 297.05 263.85
  Q 297.00 263.85 296.95 263.87
  Q 291.93 265.81 286.94 268.09
  Q 285.58 268.45 284.71 271.92
  L 280.05 288.08
  Q 279.68 288.40 279.56 288.79
  Q 275.30 302.99 271.66 314.92
  Q 269.88 320.76 267.87 322.78
  C 263.67 326.98 258.95 327.40 253.61 325.76
  Q 208.34 311.87 163.37 298.13
  Q 155.83 295.82 154.29 288.03
  Q 153.75 285.29 154.96 281.28
  Q 160.70 262.34 166.68 242.98
  Q 166.98 242.00 167.05 240.23
  Q 167.30 239.21 167.61 239.49
  L 169.41 233.28
  Q 169.52 232.93 169.21 232.72
  L 168.97 232.56
  Q 169.13 232.52 169.23 232.46
  Q 169.39 232.37 169.24 232.27
  L 168.95 232.08
  Q 169.44 232.19 169.77 232.05
  Q 170.07 231.93 170.16 231.62
  Q 174.29 217.95 178.45 204.47
  Q 178.52 204.25 178.44 204.04
  Q 178.38 203.88 178.28 203.66
  Q 178.42 203.74 178.46 203.06
  L 178.90 202.77
  L 179.93 198.97
  L 183.86 186.46
  L 194.05 152.80
  Q 196.27 147.28 195.92 145.24
  Q 196.57 145.13 196.87 144.14
  Q 204.44 119.33 211.83 95.25
  C 212.48 93.27 212.85 91.49 213.85 89.74
  Q 217.11 84.04 223.41 83.39
  Q 226.57 83.07 232.31 84.86
  Q 275.53 98.35 318.58 111.28
  Q 328.18 114.16 329.20 122.02
  Q 329.63 125.35 327.73 131.51
  Q 321.59 151.38 315.62 171.14
  Z
  M 216.96 97.13
  C 198.29 158.41 179.49 219.68 160.75 281.05
  Q 159.40 285.48 159.77 287.58
  Q 160.47 291.48 164.71 292.78
  Q 210.48 306.79 256.34 320.79
  Q 261.13 322.25 263.75 319.23
  Q 265.03 317.76 266.40 313.28
  Q 294.75 220.60 323.07 127.92
  C 324.58 122.99 324.02 118.79 318.44 117.09
  Q 300.56 111.66 285.23 107.11
  C 282.36 106.25 279.39 106.67 276.62 107.63
  C 269.57 110.07 268.52 105.35 264.48 101.82
  Q 262.53 100.12 259.40 99.15
  Q 245.65 94.92 231.21 90.42
  C 227.48 89.26 223.46 87.49 220.09 90.55
  Q 218.53 91.95 216.96 97.13
  Z"
/>
<path fill="#bbbdc7" d="
  M 171.08 101.01
  Q 167.65 98.54 167.97 95.96
  Q 168.05 95.29 167.57 94.81
  Q 166.11 93.38 164.52 91.73
  Q 163.51 90.68 162.50 91.69
  A 0.64 0.63 -36.7 0 1 161.49 91.55
  Q 160.43 89.58 158.77 89.08
  A 1.13 1.12 -61.2 0 0 157.59 89.43
  Q 156.96 90.16 156.22 90.48
  Q 158.09 87.86 160.62 86.33
  A 1.29 1.29 0.0 0 1 162.20 86.53
  L 172.78 97.22
  A 1.44 1.44 0.0 0 1 172.79 99.22
  L 171.08 101.01
  Z"
/>
<path fill="#bedbff" d="
  M 160.75 281.05
  C 179.49 219.68 198.29 158.41 216.96 97.13
  Q 218.53 91.95 220.09 90.55
  C 223.46 87.49 227.48 89.26 231.21 90.42
  Q 245.65 94.92 259.40 99.15
  Q 262.53 100.12 264.48 101.82
  C 268.52 105.35 269.57 110.07 276.62 107.63
  C 279.39 106.67 282.36 106.25 285.23 107.11
  Q 300.56 111.66 318.44 117.09
  C 324.02 118.79 324.58 122.99 323.07 127.92
  Q 294.75 220.60 266.40 313.28
  Q 265.03 317.76 263.75 319.23
  Q 261.13 322.25 256.34 320.79
  Q 210.48 306.79 164.71 292.78
  Q 160.47 291.48 159.77 287.58
  Q 159.40 285.48 160.75 281.05
  Z
  M 286.1043 154.8889
  A 0.61 0.61 0.0 0 0 285.6993 154.1272
  L 278.6035 151.9578
  A 0.61 0.61 0.0 0 0 277.8418 152.3628
  L 266.6557 188.9511
  A 0.61 0.61 0.0 0 0 267.0607 189.7128
  L 274.1565 191.8822
  A 0.61 0.61 0.0 0 0 274.9182 191.4772
  L 286.1043 154.8889
  Z
  M 272.2491 158.8778
  A 0.45 0.45 0.0 0 0 271.9503 158.3159
  L 264.5677 156.0588
  A 0.45 0.45 0.0 0 0 264.0058 156.3575
  L 255.0709 185.5822
  A 0.45 0.45 0.0 0 0 255.3697 186.1441
  L 262.7523 188.4012
  A 0.45 0.45 0.0 0 0 263.3142 188.1025
  L 272.2491 158.8778
  Z
  M 233.9027 160.1548
  A 0.39 0.39 0.0 0 0 233.6438 159.6678
  L 226.1655 157.3815
  A 0.39 0.39 0.0 0 0 225.6785 157.6404
  L 220.3573 175.0452
  A 0.39 0.39 0.0 0 0 220.6162 175.5322
  L 228.0945 177.8185
  A 0.39 0.39 0.0 0 0 228.5815 177.5596
  L 233.9027 160.1548
  Z
  M 245.4569 163.7153
  A 0.41 0.41 0.0 0 0 245.1855 163.2029
  L 237.7495 160.9153
  A 0.41 0.41 0.0 0 0 237.2370 161.1866
  L 231.9031 178.5247
  A 0.41 0.41 0.0 0 0 232.1745 179.0371
  L 239.6105 181.3247
  A 0.41 0.41 0.0 0 0 240.1230 181.0534
  L 245.4569 163.7153
  Z
  M 257.9133 164.3207
  A 0.55 0.55 0.0 0 0 257.5481 163.6339
  L 250.3567 161.4353
  A 0.55 0.55 0.0 0 0 249.6699 161.8004
  L 243.5067 181.9593
  A 0.55 0.55 0.0 0 0 243.8719 182.6461
  L 251.0633 184.8447
  A 0.55 0.55 0.0 0 0 251.7501 184.4796
  L 257.9133 164.3207
  Z
  M 235.51 211.97
  Q 227.03 210.04 219.03 213.90
  Q 218.64 214.09 218.84 214.47
  L 229.23 234.27
  Q 229.72 235.21 230.03 234.20
  L 236.55 212.83
  A 0.59 0.59 0.0 0 0 236.07 212.07
  Q 235.79 212.03 235.51 211.97
  Z
  M 254.06 244.41
  C 257.08 231.91 251.05 219.74 238.82 215.35
  Q 238.19 215.12 238.00 215.76
  L 231.31 237.69
  Q 231.14 238.23 231.68 238.40
  L 253.08 244.96
  Q 253.87 245.20 254.06 244.41
  Z
  M 227.88 237.47
  L 217.32 217.45
  A 0.70 0.69 60.2 0 0 216.34 217.18
  C 205.26 224.02 201.26 237.20 206.83 248.81
  A 0.53 0.53 0.0 0 0 207.55 249.04
  L 227.62 238.29
  A 0.61 0.61 0.0 0 0 227.88 237.47
  Z
  M 229.03 240.69
  L 209.41 251.24
  A 0.73 0.72 59.4 0 0 209.15 252.28
  Q 217.25 264.53 231.09 263.88
  C 240.65 263.42 248.78 256.84 252.19 247.87
  Q 252.45 247.18 251.74 246.96
  L 230.77 240.52
  A 2.27 2.24 39.1 0 0 229.03 240.69
  Z"
/>
<path fill="#d2d3da" d="
  M 171.08 101.01
  L 166.66 105.30
  Q 165.64 103.21 163.82 101.82
  Q 163.40 101.50 162.91 101.71
  L 162.33 101.97
  Q 161.64 102.28 161.12 101.74
  L 157.54 98.11
  Q 157.08 97.64 157.38 97.06
  Q 157.60 96.65 157.61 96.20
  Q 157.63 95.79 157.37 95.48
  L 155.34 93.05
  Q 154.95 92.58 155.26 92.06
  L 156.22 90.48
  Q 156.96 90.16 157.59 89.43
  A 1.13 1.12 -61.2 0 1 158.77 89.08
  Q 160.43 89.58 161.49 91.55
  A 0.64 0.63 -36.7 0 0 162.50 91.69
  Q 163.51 90.68 164.52 91.73
  Q 166.11 93.38 167.57 94.81
  Q 168.05 95.29 167.97 95.96
  Q 167.65 98.54 171.08 101.01
  Z"
/>
<path fill="#bbbdc7" d="
  M 156.22 90.48
  L 155.26 92.06
  Q 154.95 92.58 155.34 93.05
  L 157.37 95.48
  Q 157.63 95.79 157.61 96.20
  Q 157.60 96.65 157.38 97.06
  Q 157.08 97.64 157.54 98.11
  L 161.12 101.74
  Q 161.64 102.28 162.33 101.97
  L 162.91 101.71
  Q 163.40 101.50 163.82 101.82
  Q 165.64 103.21 166.66 105.30
  Q 165.67 106.81 164.18 107.06
  A 0.90 0.87 62.0 0 1 163.40 106.81
  L 152.73 96.07
  A 1.40 1.39 37.3 0 1 152.50 94.40
  Q 153.78 92.13 156.22 90.48
  Z"
/>
<rect fill="#93c3ff" x="-3.59" y="-10.48" transform="translate(153.70,107.67) rotate(-44.7)" width="7.18" height="20.96" rx="1.43"/>
<rect fill="#93c3ff" x="-3.56" y="-10.52" transform="translate(137.46,123.73) rotate(-44.5)" width="7.12" height="21.04" rx="1.51"/>
<rect fill="#93c3ff" x="-3.55" y="-10.50" transform="translate(171.02,125.24) rotate(-44.7)" width="7.10" height="21.00" rx="1.40"/>
<path fill="#93c3ff" d="
  M 166.87 158.64
  L 166.05 158.26
  Q 165.82 157.47 165.16 156.84
  Q 156.19 148.11 147.66 139.16
  Q 146.45 137.89 147.70 136.67
  L 150.24 134.16
  Q 151.56 132.87 152.85 134.18
  L 172.43 154.07
  A 1.09 1.09 0.0 0 1 172.52 155.50
  Q 171.08 157.36 169.05 159.07
  Q 168.19 159.79 166.87 158.64
  Z"
/>
<path fill="#93c3ff" d="
  M 195.92 145.24
  Q 196.27 147.28 194.05 152.80
  L 179.72 139.07
  Q 178.38 137.78 179.72 136.50
  L 182.64 133.72
  A 1.33 1.32 -44.2 0 1 184.49 133.74
  L 195.92 145.24
  Z"
/>
<rect fill="#93c3ff" x="-4.32" y="-19.74" transform="translate(276.38,171.92) rotate(17.0)" width="8.64" height="39.48" rx="0.61"/>
<rect fill="#2888ff" x="-4.31" y="-15.73" transform="translate(263.66,172.23) rotate(17.0)" width="8.62" height="31.46" rx="0.45"/>
<rect fill="#063f86" x="-4.30" y="-9.49" transform="translate(227.13,167.60) rotate(17.0)" width="8.60" height="18.98" rx="0.39"/>
<path fill="#d2d3da" d="
  M 164.86 203.41
  L 164.27 203.93
  L 139.13 204.22
  Q 138.39 204.23 138.39 204.97
  L 138.44 212.45
  L 137.86 212.79
  L 137.85 204.58
  A 0.42 0.42 0.0 0 0 137.42 204.17
  L 109.46 204.72
  Q 109.30 204.45 108.93 204.45
  Q 92.03 204.69 75.14 204.96
  Q 74.90 204.96 74.89 204.71
  L 74.89 204.70
  Q 74.89 204.48 75.12 204.47
  Q 91.81 204.16 108.26 203.97
  A 0.70 0.69 88.8 0 0 108.94 203.25
  L 108.77 197.74
  Q 108.77 197.63 108.88 197.62
  L 109.18 197.59
  Q 109.40 197.57 109.40 197.79
  L 109.43 203.42
  A 0.50 0.49 0.0 0 0 109.93 203.91
  L 137.33 203.67
  Q 137.82 203.67 137.82 203.17
  L 137.43 158.12
  A 0.18 0.04 -90.0 0 1 137.47 157.94
  L 137.75 157.94
  Q 137.98 157.94 137.99 158.17
  L 138.36 202.75
  Q 138.36 203.68 139.29 203.67
  L 164.86 203.41
  Z"
/>
<path fill="#d2d3da" d="
  M 108.09 175.18
  A 0.50 0.50 0.0 0 0 108.63 174.67
  Q 108.48 166.92 108.57 158.38
  Q 108.57 158.19 108.76 158.19
  L 108.77 158.19
  Q 108.99 158.19 108.99 158.40
  Q 109.14 166.12 109.20 174.45
  A 0.57 0.56 89.5 0 0 109.77 175.02
  Q 114.74 174.94 119.74 174.85
  Q 119.80 174.85 119.80 174.91
  L 119.81 175.20
  Q 119.81 175.41 119.61 175.41
  L 110.27 175.60
  Q 109.63 175.61 109.25 176.11
  Q 108.87 176.59 108.51 176.07
  Q 108.12 175.54 107.46 175.55
  L 89.48 175.89
  A 0.12 0.11 87.8 0 1 89.36 175.77
  L 89.36 175.52
  Q 89.37 175.26 89.63 175.27
  Q 94.21 175.47 99.54 175.12
  Q 104.01 174.82 108.09 175.18
  Z"
/>
<rect fill="#d2d3da" x="-0.27" y="-21.33" transform="translate(80.00,179.77) rotate(-0.4)" width="0.54" height="42.66" rx="0.26"/>
<path fill="#bbbdc7" d="
  M 166.05 158.26
  L 166.87 158.64
  L 166.87 169.19
  L 167.28 195.52
  Q 167.19 196.18 166.73 196.74
  Q 166.61 183.09 166.35 169.50
  Q 166.34 168.77 165.91 168.34
  C 166.13 167.96 166.31 167.65 166.30 167.20
  Q 166.22 162.76 166.05 158.26
  Z"
/>
<rect fill="#063f86" x="-4.30" y="-9.48" transform="translate(238.68,171.12) rotate(17.1)" width="8.60" height="18.96" rx="0.41"/>
<rect fill="#2888ff" x="-4.31" y="-11.09" transform="translate(250.71,173.14) rotate(17.0)" width="8.62" height="22.18" rx="0.55"/>
<path fill="#d2d3da" d="
  M 315.62 171.14
  Q 320.30 172.27 324.39 174.10
  Q 347.12 184.27 363.09 203.33
  C 366.89 207.86 372.26 215.58 367.79 221.26
  C 361.11 223.42 354.53 221.70 348.31 218.99
  Q 326.41 209.46 310.25 191.44
  A 1.68 1.67 41.6 0 1 310.12 189.37
  Q 311.06 188.02 310.94 186.29
  L 313.50 177.96
  L 314.88 175.63
  Q 315.37 174.82 316.28 175.06
  Q 322.85 176.82 327.92 179.40
  Q 343.68 187.39 355.39 199.42
  Q 360.12 204.28 363.13 210.06
  C 363.85 211.43 364.00 212.91 364.51 214.37
  Q 364.79 215.16 364.86 214.33
  C 365.23 210.21 360.72 203.48 358.01 200.46
  Q 344.56 185.46 325.89 177.14
  Q 320.92 174.93 315.52 174.07
  A 0.75 0.74 -4.4 0 1 314.92 173.56
  Q 314.84 173.31 314.94 173.04
  L 315.62 171.14
  Z"
/>
<path fill="#bbbdc7" d="
  M 314.94 173.04
  Q 314.84 173.31 314.92 173.56
  A 0.75 0.74 -4.4 0 0 315.52 174.07
  Q 320.92 174.93 325.89 177.14
  Q 344.56 185.46 358.01 200.46
  C 360.72 203.48 365.23 210.21 364.86 214.33
  Q 364.79 215.16 364.51 214.37
  C 364.00 212.91 363.85 211.43 363.13 210.06
  Q 360.12 204.28 355.39 199.42
  Q 343.68 187.39 327.92 179.40
  Q 322.85 176.82 316.28 175.06
  Q 315.37 174.82 314.88 175.63
  L 313.50 177.96
  L 314.94 173.04
  Z"
/>
<rect fill="#d2d3da" x="-9.13" y="-0.28" transform="translate(150.03,174.94) rotate(-0.5)" width="18.26" height="0.56" rx="0.26"/>
<ellipse fill="#bbbdc7" cx="0.00" cy="0.00" transform="translate(130.38,175.07) rotate(0.5)" rx="3.28" ry="0.34"/>
<path fill="#2888ff" d="
  M 179.93 198.97
  L 178.90 202.77
  L 173.37 188.77
  Q 173.03 187.88 172.73 188.79
  L 167.99 203.49
  Q 168.06 203.77 168.04 204.00
  Q 167.40 203.89 167.28 204.25
  Q 162.46 218.61 157.39 232.94
  A 0.17 0.17 0.0 0 1 157.10 232.99
  L 142.35 214.36
  Q 142.03 213.95 141.62 214.27
  Q 138.72 216.52 138.47 219.62
  Q 138.28 219.59 138.05 219.71
  Q 138.06 219.25 137.89 219.06
  Q 137.60 218.74 137.33 219.08
  L 134.43 222.70
  Q 133.97 223.28 133.57 222.66
  L 126.25 211.49
  Q 125.62 210.52 125.25 211.61
  L 119.37 229.18
  Q 119.13 229.90 118.94 229.17
  L 116.12 218.24
  Q 115.99 217.73 115.53 217.98
  L 109.77 221.13
  Q 109.65 221.51 109.22 221.32
  Q 90.16 231.37 81.19 236.45
  Q 80.59 236.80 81.03 237.75
  Q 80.44 236.79 80.26 237.20
  L 79.23 235.53
  Q 78.96 235.08 79.38 234.77
  Q 80.34 234.05 80.23 232.96
  Q 80.35 232.70 80.71 232.46
  Q 80.68 232.95 80.97 233.37
  A 0.41 0.40 57.6 0 0 81.49 233.49
  Q 94.55 226.41 107.30 219.57
  Q 109.06 218.63 109.04 217.56
  Q 109.12 217.68 109.53 217.53
  Q 109.56 217.76 109.75 217.93
  Q 110.00 218.16 110.30 217.99
  L 117.03 214.30
  A 0.45 0.45 0.0 0 1 117.68 214.58
  L 118.97 219.72
  Q 119.44 221.56 120.03 219.76
  L 124.68 205.60
  Q 124.87 205.02 125.21 205.53
  L 133.88 218.71
  Q 134.12 219.08 134.42 218.76
  C 135.82 217.24 138.45 214.97 137.86 212.79
  L 138.44 212.45
  Q 138.43 212.98 138.60 213.31
  Q 138.84 213.78 139.18 213.36
  L 141.75 210.19
  A 0.27 0.27 0.0 0 1 142.17 210.19
  L 156.08 227.75
  A 0.37 0.36 -54.6 0 0 156.71 227.64
  L 164.78 204.43
  A 0.36 0.36 0.0 0 0 164.71 204.07
  Q 164.50 203.81 164.27 203.93
  L 164.86 203.41
  Q 166.75 200.46 166.73 196.74
  Q 167.19 196.18 167.28 195.52
  Q 167.36 195.76 167.52 195.88
  Q 167.80 196.10 167.91 195.76
  L 172.57 181.82
  Q 172.83 181.05 173.13 181.81
  L 179.93 198.97
  Z"
/>
<ellipse fill="#bbbdc7" cx="0.00" cy="0.00" transform="translate(109.01,187.17) rotate(89.0)" rx="3.05" ry="0.30"/>
<path fill="#bbbdc7" d="
  M 310.94 186.29
  Q 311.06 188.02 310.12 189.37
  A 1.68 1.67 41.6 0 0 310.25 191.44
  Q 326.41 209.46 348.31 218.99
  C 354.53 221.70 361.11 223.42 367.79 221.26
  C 365.74 223.64 364.57 226.44 360.92 226.51
  Q 359.61 226.54 358.34 226.82
  Q 357.76 226.94 357.43 227.43
  Q 354.39 231.80 350.83 236.25
  Q 350.18 237.06 349.21 237.37
  Q 348.73 237.52 348.41 237.90
  Q 347.81 238.64 347.94 239.16
  Q 345.74 237.37 342.70 238.96
  Q 340.30 240.22 339.09 240.36
  C 332.10 241.17 323.13 237.16 316.50 233.66
  Q 307.34 228.83 301.78 224.22
  Q 301.53 224.01 301.32 224.26
  L 301.16 224.47
  Q 301.12 224.52 301.17 224.56
  C 311.22 233.06 323.86 240.66 336.88 243.36
  Q 342.07 244.43 346.56 242.31
  L 338.97 252.91
  Q 337.56 253.65 337.31 254.92
  L 335.97 256.25
  Q 335.05 256.16 334.11 256.93
  A 1.47 1.46 -66.6 0 1 333.26 257.27
  Q 331.11 257.43 328.92 257.49
  Q 326.81 257.54 324.60 256.89
  Q 308.87 252.26 295.91 242.28
  Q 295.62 242.06 295.34 242.25
  A 0.33 0.33 0.0 0 0 295.33 242.79
  Q 302.87 248.32 311.20 252.55
  Q 314.84 254.39 318.79 255.78
  Q 323.95 257.60 326.75 258.00
  Q 328.40 258.24 334.28 258.13
  Q 332.60 262.44 327.50 262.47
  Q 322.99 262.50 318.71 261.07
  Q 317.31 260.52 316.40 260.56
  L 309.98 257.96
  Q 309.11 257.23 308.02 256.80
  L 300.26 252.66
  Q 299.59 252.09 298.68 251.95
  Q 297.85 250.95 296.64 250.31
  L 292.33 247.34
  L 310.94 186.29
  Z
  M 307.63 197.91
  A 0.36 0.35 -49.8 0 0 307.66 198.37
  Q 314.85 205.46 323.08 211.07
  Q 323.27 211.20 323.41 211.02
  L 323.56 210.81
  Q 323.61 210.75 323.54 210.70
  Q 315.49 204.85 308.49 197.45
  Q 308.20 197.14 307.94 197.48
  L 307.63 197.91
  Z
  M 307.84 206.59
  Q 321.17 219.03 338.02 226.23
  C 341.92 227.90 345.87 228.83 350.04 229.22
  Q 352.54 229.46 354.99 228.83
  Q 355.25 228.76 355.18 228.50
  L 355.18 228.49
  Q 355.12 228.26 354.89 228.32
  Q 351.66 229.11 348.72 228.44
  C 346.58 227.95 344.32 227.67 342.28 226.91
  Q 322.68 219.62 306.82 204.89
  Q 306.72 204.80 306.71 204.66
  Q 306.70 204.45 306.50 204.36
  Q 306.28 204.27 306.14 204.42
  Q 306.07 204.51 306.05 204.62
  Q 305.85 205.81 307.00 206.12
  Q 307.48 206.25 307.84 206.59
  Z"
/>
<path fill="#d2d3da" d="
  M 307.63 197.91
  L 307.94 197.48
  Q 308.20 197.14 308.49 197.45
  Q 315.49 204.85 323.54 210.70
  Q 323.61 210.75 323.56 210.81
  L 323.41 211.02
  Q 323.27 211.20 323.08 211.07
  Q 314.85 205.46 307.66 198.37
  A 0.36 0.35 -49.8 0 1 307.63 197.91
  Z"
/>
<path fill="#d2d3da" d="
  M 178.46 203.06
  Q 178.42 203.74 178.28 203.66
  L 168.04 204.00
  Q 168.06 203.77 167.99 203.49
  L 178.46 203.06
  Z"
/>
<path fill="#d2d3da" d="
  M 307.00 206.12
  Q 305.85 205.81 306.05 204.62
  Q 306.07 204.51 306.14 204.42
  Q 306.28 204.27 306.50 204.36
  Q 306.70 204.45 306.71 204.66
  Q 306.72 204.80 306.82 204.89
  Q 322.68 219.62 342.28 226.91
  C 344.32 227.67 346.58 227.95 348.72 228.44
  Q 351.66 229.11 354.89 228.32
  Q 355.12 228.26 355.18 228.49
  L 355.18 228.50
  Q 355.25 228.76 354.99 228.83
  Q 352.54 229.46 350.04 229.22
  C 345.87 228.83 341.92 227.90 338.02 226.23
  Q 321.17 219.03 307.84 206.59
  Q 307.48 206.25 307.00 206.12
  Z"
/>
<path fill="#bbbdc7" d="
  M 108.93 204.45
  Q 109.30 204.45 109.46 204.72
  L 109.53 217.53
  Q 109.12 217.68 109.04 217.56
  L 108.93 204.45
  Z"
/>
<ellipse fill="#bbbdc7" cx="0.00" cy="0.00" transform="translate(167.12,211.00) rotate(89.2)" rx="3.08" ry="0.35"/>
<path fill="#d2d3da" d="
  M 80.59 209.43
  Q 80.37 212.14 80.67 214.82
  A 0.07 0.06 -8.7 0 1 80.61 214.89
  L 80.30 214.92
  Q 80.05 214.94 80.05 214.69
  L 80.03 209.25
  A 0.09 0.08 -87.1 0 1 80.12 209.16
  L 80.38 209.18
  Q 80.61 209.20 80.59 209.43
  Z"
/>
<path fill="#68abff" d="
  M 235.51 211.97
  Q 235.79 212.03 236.07 212.07
  A 0.59 0.59 0.0 0 1 236.55 212.83
  L 230.03 234.20
  Q 229.72 235.21 229.23 234.27
  L 218.84 214.47
  Q 218.64 214.09 219.03 213.90
  Q 227.03 210.04 235.51 211.97
  Z"
/>
<path fill="#2888ff" d="
  M 238.82 215.35
  C 251.05 219.74 257.08 231.91 254.06 244.41
  Q 253.87 245.20 253.08 244.96
  L 231.68 238.40
  Q 231.14 238.23 231.31 237.69
  L 238.00 215.76
  Q 238.19 215.12 238.82 215.35
  Z"
/>
<path fill="#d2d3da" d="
  M 217.32 217.45
  L 227.88 237.47
  A 0.61 0.61 0.0 0 1 227.62 238.29
  L 207.55 249.04
  A 0.53 0.53 0.0 0 1 206.83 248.81
  C 201.26 237.20 205.26 224.02 216.34 217.18
  A 0.70 0.69 60.2 0 1 217.32 217.45
  Z"
/>
<path fill="#d2d3da" d="
  M 138.05 219.71
  Q 138.28 219.59 138.47 219.62
  L 139.07 260.64
  A 0.91 0.90 -1.3 0 0 140.00 261.52
  L 145.24 261.38
  A 0.18 0.18 0.0 0 1 145.42 261.58
  L 145.40 261.83
  Q 145.39 261.92 145.30 261.92
  L 139.82 261.99
  A 0.69 0.68 -0.8 0 0 139.14 262.68
  L 139.22 270.08
  Q 139.22 270.25 139.05 270.28
  L 138.75 270.34
  Q 138.67 270.36 138.66 270.28
  L 138.52 262.88
  A 0.87 0.87 0.0 0 0 137.63 262.02
  Q 126.01 262.23 115.24 262.24
  Q 115.04 262.24 115.03 262.03
  L 115.03 262.02
  Q 115.03 261.81 115.24 261.81
  Q 126.61 261.54 137.91 261.57
  Q 138.60 261.57 138.59 260.88
  L 138.16 233.14
  Q 138.60 232.34 138.23 232.60
  L 138.05 219.71
  Z"
/>
<path fill="#d2d3da" d="
  M 109.22 221.32
  Q 109.65 221.51 109.77 221.13
  L 109.83 227.70
  Q 109.83 227.94 109.60 227.97
  L 109.33 228.00
  Q 109.20 228.01 109.20 227.88
  L 109.22 221.32
  Z"
/>
<path fill="#d2d3da" d="
  M 168.95 232.08
  L 169.24 232.27
  Q 169.39 232.37 169.23 232.46
  Q 169.13 232.52 168.97 232.56
  Q 167.79 232.01 167.69 233.00
  Q 167.49 234.74 167.61 239.49
  Q 167.30 239.21 167.05 240.23
  L 167.12 232.96
  A 0.55 0.55 0.0 0 0 166.50 232.41
  Q 163.52 232.81 160.35 232.95
  Q 160.16 232.96 160.14 232.76
  L 160.14 232.76
  Q 160.12 232.64 160.24 232.61
  Q 163.26 231.93 166.21 232.25
  Q 167.07 232.35 167.06 231.49
  L 166.99 221.75
  Q 166.99 221.72 167.06 221.70
  L 167.30 221.62
  A 0.21 0.21 0.0 0 1 167.57 221.82
  Q 167.36 228.56 167.57 231.38
  Q 167.64 232.39 168.95 232.08
  Z"
/>
<path fill="#d2d3da" d="
  M 80.71 232.46
  Q 80.35 232.70 80.23 232.96
  Q 80.49 227.91 80.18 222.87
  Q 80.17 222.70 80.34 222.68
  L 80.35 222.68
  Q 80.52 222.66 80.55 222.83
  Q 81.23 227.63 80.71 232.46
  Z"
/>
<path fill="#d2d3da" d="
  M 347.94 239.16
  Q 347.46 241.14 346.56 242.31
  Q 342.07 244.43 336.88 243.36
  C 323.86 240.66 311.22 233.06 301.17 224.56
  Q 301.12 224.52 301.16 224.47
  L 301.32 224.26
  Q 301.53 224.01 301.78 224.22
  Q 307.34 228.83 316.50 233.66
  C 323.13 237.16 332.10 241.17 339.09 240.36
  Q 340.30 240.22 342.70 238.96
  Q 345.74 237.37 347.94 239.16
  Z"
/>
<ellipse fill="#d2d3da" cx="0.00" cy="0.00" transform="translate(149.57,232.75) rotate(-1.6)" rx="3.00" ry="0.27"/>
<path fill="#bbbdc7" d="
  M 138.23 232.60
  Q 138.60 232.34 138.16 233.14
  Q 114.44 233.36 90.73 233.61
  Q 90.50 233.62 90.49 233.38
  L 90.49 233.37
  Q 90.49 233.14 90.72 233.13
  Q 94.85 232.94 99.00 232.91
  Q 118.69 232.74 138.23 232.60
  Z"
/>
<path fill="#bbbdc7" d="
  M 81.03 237.75
  L 81.22 262.09
  L 80.73 262.12
  L 80.26 237.20
  Q 80.44 236.79 81.03 237.75
  Z"
/>
<path fill="#68abff" d="
  M 209.41 251.24
  L 229.03 240.69
  A 2.27 2.24 39.1 0 1 230.77 240.52
  L 251.74 246.96
  Q 252.45 247.18 252.19 247.87
  C 248.78 256.84 240.65 263.42 231.09 263.88
  Q 217.25 264.53 209.15 252.28
  A 0.73 0.72 59.4 0 1 209.41 251.24
  Z"
/>
<path fill="#d2d3da" d="
  M 335.97 256.25
  Q 334.98 257.77 334.28 258.13
  Q 328.40 258.24 326.75 258.00
  Q 323.95 257.60 318.79 255.78
  Q 314.84 254.39 311.20 252.55
  Q 302.87 248.32 295.33 242.79
  A 0.33 0.33 0.0 0 1 295.34 242.25
  Q 295.62 242.06 295.91 242.28
  Q 308.87 252.26 324.60 256.89
  Q 326.81 257.54 328.92 257.49
  Q 331.11 257.43 333.26 257.27
  A 1.47 1.46 -66.6 0 0 334.11 256.93
  Q 335.05 256.16 335.97 256.25
  Z"
/>
<ellipse fill="#d2d3da" cx="0.00" cy="0.00" transform="translate(109.80,250.41) rotate(89.9)" rx="3.80" ry="0.32"/>
<path fill="#93c3ff" d="
  M 291.79 250.12
  Q 294.26 250.66 296.64 250.31
  Q 297.85 250.95 298.68 251.95
  L 290.42 255.47
  Q 289.93 255.67 290.00 255.15
  Q 290.40 252.37 291.79 250.12
  Z"
/>
<path fill="#063f86" d="
  M 300.26 252.66
  L 308.02 256.80
  Q 308.36 257.43 307.71 257.70
  Q 294.45 263.22 287.53 266.49
  Q 286.28 267.08 286.69 265.76
  L 288.92 258.49
  Q 289.21 257.56 290.10 257.16
  L 300.26 252.66
  Z"
/>
<path fill="#bedbff" d="
  M 338.97 252.91
  L 348.18 253.45
  Q 348.85 254.29 349.76 254.15
  Q 350.60 254.02 351.13 254.38
  Q 351.71 254.76 352.40 254.71
  Q 360.09 254.15 367.76 255.58
  Q 370.04 256.01 372.22 255.87
  Q 375.44 255.67 372.59 257.19
  Q 357.59 265.17 342.98 273.20
  Q 340.89 274.34 338.39 274.47
  Q 329.14 274.92 324.01 274.25
  Q 317.37 273.37 313.22 273.84
  Q 308.86 273.62 304.35 273.60
  C 303.52 273.59 302.76 273.18 301.99 273.53
  Q 301.51 273.74 301.05 273.51
  C 300.34 273.15 299.77 272.86 298.94 272.88
  Q 291.65 273.10 284.71 271.92
  Q 285.58 268.45 286.94 268.09
  Q 288.73 268.74 290.07 268.09
  Q 290.51 267.88 290.99 267.95
  Q 291.93 268.08 293.23 267.90
  Q 305.66 266.20 316.40 260.56
  Q 317.31 260.52 318.71 261.07
  Q 318.70 261.21 318.67 261.34
  Q 318.64 261.53 318.46 261.61
  Q 304.19 267.77 288.59 269.72
  A 0.64 0.64 0.0 0 0 288.05 270.21
  L 287.98 270.50
  A 0.24 0.24 0.0 0 0 288.21 270.79
  Q 308.52 271.43 329.91 272.88
  Q 332.61 273.07 334.81 272.45
  C 338.04 271.55 341.09 272.32 344.14 270.64
  Q 355.32 264.48 365.73 259.01
  Q 367.77 257.95 365.48 257.76
  Q 365.17 257.74 364.86 257.66
  Q 364.29 257.52 364.02 257.00
  Q 363.61 256.20 362.75 256.17
  Q 350.01 255.67 337.31 254.92
  Q 337.56 253.65 338.97 252.91
  Z"
/>
<path fill="#93c3ff" d="
  M 348.18 253.45
  L 380.99 255.25
  Q 381.53 255.28 381.50 255.82
  L 380.70 269.96
  Q 380.66 270.63 380.07 270.96
  L 342.84 291.57
  Q 343.35 284.41 343.69 277.59
  Q 343.70 277.51 343.64 277.47
  Q 343.55 277.41 343.51 277.50
  Q 343.37 277.78 343.37 277.47
  Q 343.36 276.19 342.05 276.05
  Q 337.70 275.60 332.26 275.23
  Q 326.00 274.80 318.95 274.69
  Q 317.76 274.67 316.09 274.30
  Q 314.76 274.00 313.22 273.84
  Q 317.37 273.37 324.01 274.25
  Q 329.14 274.92 338.39 274.47
  Q 340.89 274.34 342.98 273.20
  Q 357.59 265.17 372.59 257.19
  Q 375.44 255.67 372.22 255.87
  Q 370.04 256.01 367.76 255.58
  Q 360.09 254.15 352.40 254.71
  Q 351.71 254.76 351.13 254.38
  Q 350.60 254.02 349.76 254.15
  Q 348.85 254.29 348.18 253.45
  Z"
/>
<path fill="#93c3ff" d="
  M 318.71 261.07
  Q 322.99 262.50 327.50 262.47
  Q 332.60 262.44 334.28 258.13
  Q 334.98 257.77 335.97 256.25
  L 337.31 254.92
  Q 350.01 255.67 362.75 256.17
  Q 363.61 256.20 364.02 257.00
  Q 364.29 257.52 364.86 257.66
  Q 365.17 257.74 365.48 257.76
  Q 367.77 257.95 365.73 259.01
  Q 355.32 264.48 344.14 270.64
  C 341.09 272.32 338.04 271.55 334.81 272.45
  Q 332.61 273.07 329.91 272.88
  Q 308.52 271.43 288.21 270.79
  A 0.24 0.24 0.0 0 1 287.98 270.50
  L 288.05 270.21
  A 0.64 0.64 0.0 0 1 288.59 269.72
  Q 304.19 267.77 318.46 261.61
  Q 318.64 261.53 318.67 261.34
  Q 318.70 261.21 318.71 261.07
  Z
  M 345.7933 263.3024
  A 6.54 1.56 -4.1 0 0 339.1585 262.2140
  A 6.54 1.56 -4.1 0 0 332.7467 264.2376
  A 6.54 1.56 -4.1 0 0 339.3815 265.3260
  A 6.54 1.56 -4.1 0 0 345.7933 263.3024
  Z"
/>
<path fill="#93c3ff" d="
  M 309.98 257.96
  L 316.40 260.56
  Q 305.66 266.20 293.23 267.90
  Q 291.93 268.08 290.99 267.95
  Q 290.51 267.88 290.07 268.09
  Q 288.73 268.74 286.94 268.09
  Q 291.93 265.81 296.95 263.87
  Q 297.00 263.85 297.05 263.85
  Q 297.18 263.84 297.20 263.67
  Q 297.20 263.53 297.34 263.47
  L 309.98 257.96
  Z"
/>
<ellipse fill="#bbbdc7" cx="0.00" cy="0.00" transform="translate(109.92,263.91) rotate(89.6)" rx="3.83" ry="0.33"/>
<path fill="#d2d3da" d="
  M 81.26 262.63
  Q 81.14 262.71 80.64 262.71
  L 76.09 262.64
  Q 75.90 262.64 75.90 262.44
  L 75.90 262.15
  A 0.05 0.05 0.0 0 1 75.95 262.10
  L 80.73 262.12
  L 81.22 262.09
  L 93.43 261.95
  Q 93.44 261.95 93.44 261.96
  L 93.44 262.26
  Q 93.44 262.46 93.24 262.46
  L 81.26 262.63
  Z"
/>
<path fill="#bbbdc7" d="
  M 101.85 262.40
  A 0.32 0.31 89.1 0 1 101.53 262.08
  L 101.54 261.81
  Q 101.54 261.74 101.60 261.75
  Q 104.32 261.86 107.15 261.75
  A 0.20 0.20 0.0 0 1 107.35 262.01
  L 107.29 262.26
  Q 107.27 262.32 107.20 262.32
  L 101.85 262.40
  Z"
/>
<ellipse fill="#bedbff" cx="0.00" cy="0.00" transform="translate(339.27,263.77) rotate(-4.1)" rx="6.54" ry="1.56"/>
<path fill="#bbbdc7" d="
  M 80.64 262.71
  Q 81.14 262.71 81.26 262.63
  Q 81.25 266.65 81.19 270.65
  Q 81.19 270.89 80.95 270.88
  L 80.94 270.88
  Q 80.70 270.88 80.71 270.64
  Q 80.81 266.68 80.64 262.71
  Z"
/>
<path fill="#68abff" d="
  M 284.71 271.92
  Q 291.65 273.10 298.94 272.88
  C 299.77 272.86 300.34 273.15 301.05 273.51
  Q 301.51 273.74 301.99 273.53
  C 302.76 273.18 303.52 273.59 304.35 273.60
  Q 308.86 273.62 313.22 273.84
  Q 314.76 274.00 316.09 274.30
  Q 317.76 274.67 318.95 274.69
  Q 326.00 274.80 332.26 275.23
  Q 337.70 275.60 342.05 276.05
  Q 343.36 276.19 343.37 277.47
  Q 343.37 277.78 343.51 277.50
  Q 343.55 277.41 343.64 277.47
  Q 343.70 277.51 343.69 277.59
  Q 343.35 284.41 342.84 291.57
  L 280.05 288.08
  L 284.71 271.92
  Z"
/>
</svg>
