<?xml version="1.0" encoding="UTF-8" standalone="no"?>
<!DOCTYPE svg PUBLIC "-//W3C//DTD SVG 1.1//EN" "http://www.w3.org/Graphics/SVG/1.1/DTD/svg11.dtd">
<svg xmlns="http://www.w3.org/2000/svg" version="1.1" viewBox="0.00 0.00 360.00 360.00">
<g stroke-width="2.00" fill="none" stroke-linecap="butt">
<path stroke="#5a596e" vector-effect="non-scaling-stroke" d="
  M 230.84 119.71
  L 230.98 142.23"
/>
<path stroke="#5a596e" vector-effect="non-scaling-stroke" d="
  M 231.04 143.68
  L 231.14 170.06"
/>
<path stroke="#5a596e" vector-effect="non-scaling-stroke" d="
  M 231.04 172.72
  L 231.00 197.32"
/>
<path stroke="#5a596e" vector-effect="non-scaling-stroke" d="
  M 231.03 199.68
  L 230.87 220.62"
/>
<path stroke="#5a596e" vector-effect="non-scaling-stroke" d="
  M 167.24 258.58
  Q 162.51 258.27 157.96 258.23
  Q 151.86 258.16 149.69 257.09
  C 141.73 253.13 141.58 246.61 141.62 238.75
  Q 141.89 189.59 141.66 155.23"
/>
<path stroke="#5a596e" vector-effect="non-scaling-stroke" d="
  M 141.00 125.42
  Q 141.70 123.91 141.74 122.00
  Q 142.08 106.38 141.48 90.98"
/>
<path stroke="#ab9fa6" vector-effect="non-scaling-stroke" d="
  M 134.87 278.21
  L 75.77 240.89"
/>
<path stroke="#4d82c2" vector-effect="non-scaling-stroke" d="
  M 280.36 79.25
  A 0.54 0.54 0.0 0 1 279.57 79.19
  L 271.83 69.27
  Q 271.37 68.67 270.79 69.16
  L 268.95 70.70
  Q 268.44 71.13 268.85 71.65
  L 279.83 85.52
  A 0.63 0.63 0.0 0 0 280.84 85.49
  L 296.09 63.47
  Q 296.74 62.53 295.81 61.86
  L 294.49 60.90
  Q 293.73 60.35 293.19 61.12
  Q 287.35 69.39 281.61 77.80
  Q 281.07 78.60 280.36 79.25"
/>
<path stroke="#216bc8" vector-effect="non-scaling-stroke" d="
  M 227.79 88.14
  C 227.71 83.14 223.03 79.27 218.60 78.73
  Q 214.31 78.20 207.42 78.53
  Q 206.71 78.56 206.84 79.26
  C 207.41 82.21 206.67 85.98 202.90 85.99
  Q 186.27 86.02 167.41 85.99
  C 163.16 85.98 163.46 82.02 163.48 79.08
  Q 163.48 78.54 162.94 78.51
  Q 156.05 78.19 153.74 78.69
  Q 144.70 80.64 144.51 89.85
  C 144.21 104.30 144.00 118.44 144.28 132.25
  C 144.48 142.32 144.13 152.55 144.16 162.46
  Q 144.30 204.02 144.20 239.37
  Q 144.19 244.42 145.01 247.58
  C 146.71 254.11 152.70 255.64 158.89 255.59
  Q 185.90 255.34 215.12 255.54
  C 222.75 255.59 228.01 251.42 227.97 243.15
  Q 227.72 180.90 227.96 117.97
  Q 228.01 101.91 227.79 88.14"
/>
<path stroke="#144480" vector-effect="non-scaling-stroke" d="
  M 183.89 133.32
  Q 177.96 134.89 175.94 140.13
  C 174.86 142.95 175.24 146.62 175.10 149.89"
/>
<path stroke="#73b1ff" vector-effect="non-scaling-stroke" d="
  M 175.10 149.89
  Q 168.48 149.49 168.52 155.99
  Q 168.57 163.33 168.63 171.51
  C 168.66 175.42 171.08 177.09 174.69 177.05
  Q 187.33 176.91 198.30 177.02
  A 5.06 5.05 0.1 0 0 203.41 171.94
  Q 203.38 164.61 203.45 155.45
  C 203.48 151.48 200.87 149.49 196.80 149.96"
/>
<path stroke="#144480" vector-effect="non-scaling-stroke" d="
  M 196.80 149.96
  L 196.71 142.74"
/>
<path stroke="#216bc8" vector-effect="non-scaling-stroke" d="
  M 196.71 142.74
  Q 197.08 140.25 195.79 139.51"
/>
<path stroke="#144480" vector-effect="non-scaling-stroke" d="
  M 195.79 139.51
  Q 194.28 136.38 190.93 134.44"
/>
<path stroke="#216bc8" vector-effect="non-scaling-stroke" d="
  M 190.93 134.44
  Q 188.88 132.22 183.89 133.32"
/>
<path stroke="#0d2748" vector-effect="non-scaling-stroke" d="
  M 190.93 134.44
  Q 189.34 134.32 187.79 133.71
  C 186.35 133.15 185.35 133.34 183.89 133.32"
/>
<path stroke="#0d2748" vector-effect="non-scaling-stroke" d="
  M 195.79 139.51
  Q 195.93 141.08 196.71 142.74"
/>
<path stroke="#5f6d80" vector-effect="non-scaling-stroke" d="
  M 196.80 149.96
  L 191.83 149.91"
/>
<path stroke="#144480" vector-effect="non-scaling-stroke" d="
  M 191.83 149.91
  C 191.82 145.41 192.75 138.48 186.16 138.38
  Q 181.60 138.32 180.59 142.12
  C 179.96 144.51 180.31 147.31 180.12 149.93"
/>
<path stroke="#5f6d80" vector-effect="non-scaling-stroke" d="
  M 180.12 149.93
  L 175.10 149.89"
/>
<path stroke="#73b1ff" vector-effect="non-scaling-stroke" d="
  M 191.83 149.91
  L 180.12 149.93"
/>
<path stroke="#73b1ff" vector-effect="non-scaling-stroke" d="
  M 167.33 194.77
  A 0.31 0.31 0.0 0 1 167.11 194.61
  L 164.62 190.09
  A 0.31 0.31 0.0 0 0 164.07 190.11
  L 161.94 194.63
  A 0.31 0.31 0.0 0 1 161.70 194.80
  L 156.51 195.45
  A 0.31 0.31 0.0 0 0 156.34 195.98
  L 160.06 199.38
  A 0.31 0.31 0.0 0 1 160.15 199.65
  L 159.36 204.72
  A 0.31 0.31 0.0 0 0 159.82 205.04
  L 164.29 202.53
  A 0.31 0.31 0.0 0 1 164.59 202.53
  L 169.14 204.95
  A 0.31 0.31 0.0 0 0 169.59 204.63
  L 168.73 199.67
  A 0.31 0.31 0.0 0 1 168.83 199.39
  L 172.55 196.02
  A 0.31 0.31 0.0 0 0 172.38 195.49
  L 167.33 194.77"
/>
<path stroke="#73b1ff" vector-effect="non-scaling-stroke" d="
  M 204.30 201.52
  Q 203.61 203.06 203.60 204.66
  Q 203.60 205.36 204.20 205.01
  L 207.92 202.85
  A 1.19 1.18 -52.2 0 1 208.85 202.73
  Q 211.11 203.39 213.26 205.02
  Q 214.01 205.58 213.85 204.66
  L 213.06 200.05
  A 0.93 0.90 -26.6 0 1 213.35 199.23
  L 216.86 196.03
  A 0.33 0.32 -62.3 0 0 216.69 195.47
  L 212.00 194.83
  A 1.46 1.45 -8.1 0 1 210.87 193.99
  L 209.28 190.49
  Q 208.78 189.37 208.24 190.48
  L 206.39 194.28
  A 0.98 0.98 0.0 0 1 205.64 194.82
  L 200.80 195.50
  Q 200.00 195.61 200.65 196.09
  Q 202.29 197.27 203.86 198.92
  Q 204.95 200.07 204.30 201.52"
/>
<path stroke="#73b1ff" vector-effect="non-scaling-stroke" d="
  M 189.26 194.73
  A 0.31 0.31 0.0 0 1 189.02 194.56
  L 186.90 189.97
  A 0.31 0.31 0.0 0 0 186.34 189.96
  L 184.05 194.63
  A 0.31 0.31 0.0 0 1 183.81 194.80
  L 178.70 195.46
  A 0.31 0.31 0.0 0 0 178.53 196.00
  L 182.29 199.40
  A 0.31 0.31 0.0 0 1 182.39 199.69
  L 181.44 204.75
  A 0.31 0.31 0.0 0 0 181.90 205.08
  L 186.44 202.52
  A 0.31 0.31 0.0 0 1 186.74 202.52
  L 191.29 204.96
  A 0.31 0.31 0.0 0 0 191.74 204.63
  L 190.80 199.76
  A 0.31 0.31 0.0 0 1 190.90 199.47
  L 194.61 196.02
  A 0.31 0.31 0.0 0 0 194.44 195.49
  L 189.26 194.73"
/>
<path stroke="#73b1ff" vector-effect="non-scaling-stroke" d="
  M 182.24 158.30
  Q 180.39 161.69 182.92 163.55"
/>
<path stroke="#5f6d80" vector-effect="non-scaling-stroke" d="
  M 182.92 163.55
  Q 183.32 163.70 183.60 164.11
  Q 183.86 164.49 183.86 164.96
  Q 183.86 166.88 183.91 168.72
  A 1.88 1.88 0.0 0 0 185.30 170.47
  Q 187.26 171.01 188.03 169.11"
/>
<path stroke="#73b1ff" vector-effect="non-scaling-stroke" d="
  M 188.03 169.11
  Q 188.15 165.37 190.60 161.03"
/>
<path stroke="#5f6d80" vector-effect="non-scaling-stroke" d="
  M 190.60 161.03
  Q 189.88 157.48 187.75 156.68
  Q 184.42 155.44 182.24 158.30"
/>
<path stroke="#144480" vector-effect="non-scaling-stroke" d="
  M 190.60 161.03
  L 188.42 163.94
  Q 188.12 164.34 188.11 164.85
  L 188.03 169.11"
/>
<path stroke="#144480" vector-effect="non-scaling-stroke" d="
  M 182.92 163.55
  Q 181.40 161.15 182.24 158.30"
/>
</g>
<path fill="#80b6f4" d="
  M 245.56 105.71
  C 245.28 106.05 245.23 106.45 245.19 106.50
  Q 244.28 107.61 244.27 106.18
  Q 244.23 79.89 244.26 54.03
  A 0.63 0.62 -90.0 0 1 244.88 53.40
  L 317.76 53.42
  Q 318.59 53.42 318.59 54.26
  L 318.55 94.38
  Q 318.55 95.07 317.87 95.07
  L 255.73 95.02
  A 2.12 2.10 20.3 0 0 254.13 95.75
  Q 249.79 100.71 245.56 105.71
  Z
  M 280.36 79.25
  A 0.54 0.54 0.0 0 1 279.57 79.19
  L 271.83 69.27
  Q 271.37 68.67 270.79 69.16
  L 268.95 70.70
  Q 268.44 71.13 268.85 71.65
  L 279.83 85.52
  A 0.63 0.63 0.0 0 0 280.84 85.49
  L 296.09 63.47
  Q 296.74 62.53 295.81 61.86
  L 294.49 60.90
  Q 293.73 60.35 293.19 61.12
  Q 287.35 69.39 281.61 77.80
  Q 281.07 78.60 280.36 79.25
  Z"
/>
<path fill="#1a4e90" d="
  M 280.36 79.25
  Q 281.07 78.60 281.61 77.80
  Q 287.35 69.39 293.19 61.12
  Q 293.73 60.35 294.49 60.90
  L 295.81 61.86
  Q 296.74 62.53 296.09 63.47
  L 280.84 85.49
  A 0.63 0.63 0.0 0 1 279.83 85.52
  L 268.85 71.65
  Q 268.44 71.13 268.95 70.70
  L 270.79 69.16
  Q 271.37 68.67 271.83 69.27
  L 279.57 79.19
  A 0.54 0.54 0.0 0 0 280.36 79.25
  Z"
/>
<path fill="#1a4e90" d="
  M 230.84 119.71
  L 230.98 142.23
  Q 230.51 142.61 231.04 143.68
  L 231.14 170.06
  Q 230.35 170.62 231.04 172.72
  L 231.00 197.32
  Q 230.45 198.19 231.03 199.68
  L 230.87 220.62
  Q 230.87 230.88 230.80 241.11
  Q 230.76 247.91 229.44 250.51
  C 226.42 256.44 221.48 258.33 214.90 258.32
  Q 194.76 258.26 171.47 258.25
  Q 170.23 258.25 169.08 258.41
  Q 168.01 258.56 167.24 258.58
  Q 162.51 258.27 157.96 258.23
  Q 151.86 258.16 149.69 257.09
  C 141.73 253.13 141.58 246.61 141.62 238.75
  Q 141.89 189.59 141.66 155.23
  Q 141.54 140.76 141.61 126.50
  Q 141.62 124.81 141.00 125.42
  Q 141.70 123.91 141.74 122.00
  Q 142.08 106.38 141.48 90.98
  Q 141.95 80.51 149.34 77.11
  Q 152.89 75.47 156.94 75.50
  Q 186.84 75.67 213.27 75.45
  Q 219.43 75.39 222.65 76.89
  C 230.20 80.40 230.92 86.38 230.89 94.38
  Q 230.84 107.10 230.84 119.71
  Z
  M 227.79 88.14
  C 227.71 83.14 223.03 79.27 218.60 78.73
  Q 214.31 78.20 207.42 78.53
  Q 206.71 78.56 206.84 79.26
  C 207.41 82.21 206.67 85.98 202.90 85.99
  Q 186.27 86.02 167.41 85.99
  C 163.16 85.98 163.46 82.02 163.48 79.08
  Q 163.48 78.54 162.94 78.51
  Q 156.05 78.19 153.74 78.69
  Q 144.70 80.64 144.51 89.85
  C 144.21 104.30 144.00 118.44 144.28 132.25
  C 144.48 142.32 144.13 152.55 144.16 162.46
  Q 144.30 204.02 144.20 239.37
  Q 144.19 244.42 145.01 247.58
  C 146.71 254.11 152.70 255.64 158.89 255.59
  Q 185.90 255.34 215.12 255.54
  C 222.75 255.59 228.01 251.42 227.97 243.15
  Q 227.72 180.90 227.96 117.97
  Q 228.01 101.91 227.79 88.14
  Z"
/>
<path fill="#2888ff" d="
  M 218.60 78.73
  C 223.03 79.27 227.71 83.14 227.79 88.14
  Q 228.01 101.91 227.96 117.97
  Q 227.72 180.90 227.97 243.15
  C 228.01 251.42 222.75 255.59 215.12 255.54
  Q 185.90 255.34 158.89 255.59
  C 152.70 255.64 146.71 254.11 145.01 247.58
  Q 144.19 244.42 144.20 239.37
  Q 144.30 204.02 144.16 162.46
  C 144.13 152.55 144.48 142.32 144.28 132.25
  C 144.00 118.44 144.21 104.30 144.51 89.85
  Q 144.70 80.64 153.74 78.69
  Q 156.05 78.19 162.94 78.51
  Q 163.48 78.54 163.48 79.08
  C 163.46 82.02 163.16 85.98 167.41 85.99
  Q 186.27 86.02 202.90 85.99
  C 206.67 85.98 207.41 82.21 206.84 79.26
  Q 206.71 78.56 207.42 78.53
  Q 214.31 78.20 218.60 78.73
  Z
  M 183.89 133.32
  Q 177.96 134.89 175.94 140.13
  C 174.86 142.95 175.24 146.62 175.10 149.89
  Q 168.48 149.49 168.52 155.99
  Q 168.57 163.33 168.63 171.51
  C 168.66 175.42 171.08 177.09 174.69 177.05
  Q 187.33 176.91 198.30 177.02
  A 5.06 5.05 0.1 0 0 203.41 171.94
  Q 203.38 164.61 203.45 155.45
  C 203.48 151.48 200.87 149.49 196.80 149.96
  L 196.71 142.74
  Q 197.08 140.25 195.79 139.51
  Q 194.28 136.38 190.93 134.44
  Q 188.88 132.22 183.89 133.32
  Z
  M 167.33 194.77
  A 0.31 0.31 0.0 0 1 167.11 194.61
  L 164.62 190.09
  A 0.31 0.31 0.0 0 0 164.07 190.11
  L 161.94 194.63
  A 0.31 0.31 0.0 0 1 161.70 194.80
  L 156.51 195.45
  A 0.31 0.31 0.0 0 0 156.34 195.98
  L 160.06 199.38
  A 0.31 0.31 0.0 0 1 160.15 199.65
  L 159.36 204.72
  A 0.31 0.31 0.0 0 0 159.82 205.04
  L 164.29 202.53
  A 0.31 0.31 0.0 0 1 164.59 202.53
  L 169.14 204.95
  A 0.31 0.31 0.0 0 0 169.59 204.63
  L 168.73 199.67
  A 0.31 0.31 0.0 0 1 168.83 199.39
  L 172.55 196.02
  A 0.31 0.31 0.0 0 0 172.38 195.49
  L 167.33 194.77
  Z
  M 204.30 201.52
  Q 203.61 203.06 203.60 204.66
  Q 203.60 205.36 204.20 205.01
  L 207.92 202.85
  A 1.19 1.18 -52.2 0 1 208.85 202.73
  Q 211.11 203.39 213.26 205.02
  Q 214.01 205.58 213.85 204.66
  L 213.06 200.05
  A 0.93 0.90 -26.6 0 1 213.35 199.23
  L 216.86 196.03
  A 0.33 0.32 -62.3 0 0 216.69 195.47
  L 212.00 194.83
  A 1.46 1.45 -8.1 0 1 210.87 193.99
  L 209.28 190.49
  Q 208.78 189.37 208.24 190.48
  L 206.39 194.28
  A 0.98 0.98 0.0 0 1 205.64 194.82
  L 200.80 195.50
  Q 200.00 195.61 200.65 196.09
  Q 202.29 197.27 203.86 198.92
  Q 204.95 200.07 204.30 201.52
  Z
  M 189.26 194.73
  A 0.31 0.31 0.0 0 1 189.02 194.56
  L 186.90 189.97
  A 0.31 0.31 0.0 0 0 186.34 189.96
  L 184.05 194.63
  A 0.31 0.31 0.0 0 1 183.81 194.80
  L 178.70 195.46
  A 0.31 0.31 0.0 0 0 178.53 196.00
  L 182.29 199.40
  A 0.31 0.31 0.0 0 1 182.39 199.69
  L 181.44 204.75
  A 0.31 0.31 0.0 0 0 181.90 205.08
  L 186.44 202.52
  A 0.31 0.31 0.0 0 1 186.74 202.52
  L 191.29 204.96
  A 0.31 0.31 0.0 0 0 191.74 204.63
  L 190.80 199.76
  A 0.31 0.31 0.0 0 1 190.90 199.47
  L 194.61 196.02
  A 0.31 0.31 0.0 0 0 194.44 195.49
  L 189.26 194.73
  Z"
/>
<path fill="#99644c" d="
  M 141.48 90.98
  Q 142.08 106.38 141.74 122.00
  Q 141.70 123.91 141.00 125.42
  Q 138.64 136.31 136.68 147.22
  Q 136.05 150.72 136.72 152.25
  Q 137.87 154.87 141.66 155.23
  Q 141.89 189.59 141.62 238.75
  C 141.58 246.61 141.73 253.13 149.69 257.09
  Q 151.86 258.16 157.96 258.23
  Q 162.51 258.27 167.24 258.58
  Q 152.74 267.14 138.82 275.33
  Q 136.74 276.56 134.87 278.21
  L 75.77 240.89
  Q 84.43 228.51 92.79 216.27
  Q 96.25 211.22 97.34 202.58
  Q 99.53 185.25 101.68 167.99
  Q 102.43 162.04 104.29 155.77
  Q 109.59 138.01 114.44 121.69
  C 115.90 116.80 118.96 112.68 121.70 108.43
  C 125.65 102.30 126.34 95.08 125.97 87.75
  C 125.74 83.28 128.84 79.46 133.46 79.99
  C 137.06 80.41 138.31 82.68 139.59 86.18
  Q 140.44 88.49 141.48 90.98
  Z"
/>
<path fill="#99644c" d="
  M 230.84 119.71
  Q 239.46 122.29 247.76 124.76
  C 253.13 126.37 257.15 128.41 256.76 134.44
  C 256.50 138.50 252.69 142.23 248.76 142.23
  Q 239.92 142.23 230.98 142.23
  L 230.84 119.71
  Z"
/>
<path fill="#1a4e90" d="
  M 190.93 134.44
  Q 189.34 134.32 187.79 133.71
  C 186.35 133.15 185.35 133.34 183.89 133.32
  Q 188.88 132.22 190.93 134.44
  Z"
/>
<path fill="#000000" d="
  M 183.89 133.32
  C 185.35 133.34 186.35 133.15 187.79 133.71
  Q 189.34 134.32 190.93 134.44
  Q 194.28 136.38 195.79 139.51
  Q 195.93 141.08 196.71 142.74
  L 196.80 149.96
  L 191.83 149.91
  C 191.82 145.41 192.75 138.48 186.16 138.38
  Q 181.60 138.32 180.59 142.12
  C 179.96 144.51 180.31 147.31 180.12 149.93
  L 175.10 149.89
  C 175.24 146.62 174.86 142.95 175.94 140.13
  Q 177.96 134.89 183.89 133.32
  Z"
/>
<path fill="#2888ff" d="
  M 191.83 149.91
  L 180.12 149.93
  C 180.31 147.31 179.96 144.51 180.59 142.12
  Q 181.60 138.32 186.16 138.38
  C 192.75 138.48 191.82 145.41 191.83 149.91
  Z"
/>
<path fill="#1a4e90" d="
  M 195.79 139.51
  Q 197.08 140.25 196.71 142.74
  Q 195.93 141.08 195.79 139.51
  Z"
/>
<path fill="#99644c" d="
  M 231.04 143.68
  Q 239.71 151.81 248.00 159.50
  Q 253.16 164.28 250.63 170.02
  Q 249.69 172.14 247.93 173.36
  C 244.24 175.91 241.52 175.10 237.37 173.09
  Q 234.33 171.61 231.14 170.06
  L 231.04 143.68
  Z"
/>
<path fill="#bddaff" d="
  M 175.10 149.89
  L 180.12 149.93
  L 191.83 149.91
  L 196.80 149.96
  C 200.87 149.49 203.48 151.48 203.45 155.45
  Q 203.38 164.61 203.41 171.94
  A 5.06 5.05 0.1 0 1 198.30 177.02
  Q 187.33 176.91 174.69 177.05
  C 171.08 177.09 168.66 175.42 168.63 171.51
  Q 168.57 163.33 168.52 155.99
  Q 168.48 149.49 175.10 149.89
  Z
  M 182.24 158.30
  Q 180.39 161.69 182.92 163.55
  Q 183.32 163.70 183.60 164.11
  Q 183.86 164.49 183.86 164.96
  Q 183.86 166.88 183.91 168.72
  A 1.88 1.88 0.0 0 0 185.30 170.47
  Q 187.26 171.01 188.03 169.11
  Q 188.15 165.37 190.60 161.03
  Q 189.88 157.48 187.75 156.68
  Q 184.42 155.44 182.24 158.30
  Z"
/>
<path fill="#000000" d="
  M 190.60 161.03
  L 188.42 163.94
  Q 188.12 164.34 188.11 164.85
  L 188.03 169.11
  Q 187.26 171.01 185.30 170.47
  A 1.88 1.88 0.0 0 1 183.91 168.72
  Q 183.86 166.88 183.86 164.96
  Q 183.86 164.49 183.60 164.11
  Q 183.32 163.70 182.92 163.55
  Q 181.40 161.15 182.24 158.30
  Q 184.42 155.44 187.75 156.68
  Q 189.88 157.48 190.60 161.03
  Z"
/>
<path fill="#2888ff" d="
  M 182.24 158.30
  Q 181.40 161.15 182.92 163.55
  Q 180.39 161.69 182.24 158.30
  Z"
/>
<path fill="#2888ff" d="
  M 190.60 161.03
  Q 188.15 165.37 188.03 169.11
  L 188.11 164.85
  Q 188.12 164.34 188.42 163.94
  L 190.60 161.03
  Z"
/>
<path fill="#99644c" d="
  M 231.04 172.72
  Q 240.34 181.64 244.05 184.93
  Q 248.87 189.20 247.36 194.49
  Q 246.49 197.53 243.94 199.11
  C 239.21 202.02 235.74 199.89 231.00 197.32
  L 231.04 172.72
  Z"
/>
<path fill="#bddaff" d="
  M 167.33 194.77
  L 172.38 195.49
  A 0.31 0.31 0.0 0 1 172.55 196.02
  L 168.83 199.39
  A 0.31 0.31 0.0 0 0 168.73 199.67
  L 169.59 204.63
  A 0.31 0.31 0.0 0 1 169.14 204.95
  L 164.59 202.53
  A 0.31 0.31 0.0 0 0 164.29 202.53
  L 159.82 205.04
  A 0.31 0.31 0.0 0 1 159.36 204.72
  L 160.15 199.65
  A 0.31 0.31 0.0 0 0 160.06 199.38
  L 156.34 195.98
  A 0.31 0.31 0.0 0 1 156.51 195.45
  L 161.70 194.80
  A 0.31 0.31 0.0 0 0 161.94 194.63
  L 164.07 190.11
  A 0.31 0.31 0.0 0 1 164.62 190.09
  L 167.11 194.61
  A 0.31 0.31 0.0 0 0 167.33 194.77
  Z"
/>
<path fill="#bddaff" d="
  M 204.30 201.52
  Q 204.95 200.07 203.86 198.92
  Q 202.29 197.27 200.65 196.09
  Q 200.00 195.61 200.80 195.50
  L 205.64 194.82
  A 0.98 0.98 0.0 0 0 206.39 194.28
  L 208.24 190.48
  Q 208.78 189.37 209.28 190.49
  L 210.87 193.99
  A 1.46 1.45 -8.1 0 0 212.00 194.83
  L 216.69 195.47
  A 0.33 0.32 -62.3 0 1 216.86 196.03
  L 213.35 199.23
  A 0.93 0.90 -26.6 0 0 213.06 200.05
  L 213.85 204.66
  Q 214.01 205.58 213.26 205.02
  Q 211.11 203.39 208.85 202.73
  A 1.19 1.18 -52.2 0 0 207.92 202.85
  L 204.20 205.01
  Q 203.60 205.36 203.60 204.66
  Q 203.61 203.06 204.30 201.52
  Z"
/>
<path fill="#bddaff" d="
  M 189.26 194.73
  L 194.44 195.49
  A 0.31 0.31 0.0 0 1 194.61 196.02
  L 190.90 199.47
  A 0.31 0.31 0.0 0 0 190.80 199.76
  L 191.74 204.63
  A 0.31 0.31 0.0 0 1 191.29 204.96
  L 186.74 202.52
  A 0.31 0.31 0.0 0 0 186.44 202.52
  L 181.90 205.08
  A 0.31 0.31 0.0 0 1 181.44 204.75
  L 182.39 199.69
  A 0.31 0.31 0.0 0 0 182.29 199.40
  L 178.53 196.00
  A 0.31 0.31 0.0 0 1 178.70 195.46
  L 183.81 194.80
  A 0.31 0.31 0.0 0 0 184.05 194.63
  L 186.34 189.96
  A 0.31 0.31 0.0 0 1 186.90 189.97
  L 189.02 194.56
  A 0.31 0.31 0.0 0 0 189.26 194.73
  Z"
/>
<path fill="#99644c" d="
  M 231.03 199.68
  Q 235.99 204.41 240.64 208.60
  C 244.09 211.71 244.66 216.40 241.48 219.92
  Q 237.51 224.32 230.87 220.62
  L 231.03 199.68
  Z"
/>
<path fill="#bddaff" d="
  M 75.77 240.89
  L 134.87 278.21
  L 144.05 284.08
  Q 144.56 284.41 144.24 284.92
  L 115.55 330.67
  Q 115.24 331.15 114.76 330.85
  L 40.53 283.99
  A 0.36 0.36 0.0 0 1 40.42 283.50
  L 69.18 237.64
  A 0.81 0.80 32.2 0 1 70.30 237.39
  L 75.77 240.89
  Z"
/>
</svg>
